<svg xmlns="http://www.w3.org/2000/svg" viewBox="0 0 512 512" width="512" height="512">
  <defs>
    <!-- Brand gradient for the tile -->
    <linearGradient id="tile" x1="0" y1="0" x2="1" y2="1">
      <stop offset="0" stop-color="#8b5cf6"/>
      <stop offset=".5" stop-color="#6366f1"/>
      <stop offset="1" stop-color="#06b6d4"/>
    </linearGradient>
    <!-- Glass sheen on the upper half -->
    <linearGradient id="sheen" x1="0" y1="0" x2="0" y2="1">
      <stop offset="0" stop-color="#fff" stop-opacity=".42"/>
      <stop offset=".48" stop-color="#fff" stop-opacity=".06"/>
      <stop offset=".5" stop-color="#fff" stop-opacity="0"/>
    </linearGradient>
    <!-- Rim light: bright top edge, darker bottom edge -->
    <linearGradient id="rim" x1="0" y1="0" x2="0" y2="1">
      <stop offset="0" stop-color="#fff" stop-opacity=".75"/>
      <stop offset=".35" stop-color="#fff" stop-opacity=".12"/>
      <stop offset="1" stop-color="#1e1b4b" stop-opacity=".45"/>
    </linearGradient>
    <!-- Glyph fill: white to soft lavender -->
    <linearGradient id="glyph" x1="0" y1="0" x2="1" y2="1">
      <stop offset="0" stop-color="#ffffff"/>
      <stop offset="1" stop-color="#e4e0ff"/>
    </linearGradient>
    <radialGradient id="glow" cx=".5" cy=".42" r=".6">
      <stop offset="0" stop-color="#a5b4fc" stop-opacity=".55"/>
      <stop offset="1" stop-color="#a5b4fc" stop-opacity="0"/>
    </radialGradient>
    <clipPath id="tileClip"><rect x="40" y="40" width="432" height="432" rx="108"/></clipPath>

    <!-- Drop shadow for the whole tile -->
    <filter id="tileShadow" x="-20%" y="-20%" width="140%" height="150%">
      <feDropShadow dx="0" dy="22" stdDeviation="22" flood-color="#2e1065" flood-opacity=".55"/>
    </filter>
    <!-- Bevel & emboss for the glyph (Photoshop-style lighting) -->
    <filter id="bevel" x="-20%" y="-20%" width="140%" height="140%">
      <feGaussianBlur in="SourceAlpha" stdDeviation="6" result="blur"/>
      <feSpecularLighting in="blur" surfaceScale="6" specularConstant=".9" specularExponent="22" lighting-color="#ffffff" result="spec">
        <fePointLight x="120" y="40" z="260"/>
      </feSpecularLighting>
      <feComposite in="spec" in2="SourceAlpha" operator="in" result="specIn"/>
      <feComposite in="SourceGraphic" in2="specIn" operator="arithmetic" k1="0" k2="1" k3=".55" k4="0" result="lit"/>
      <feDropShadow in="lit" dx="0" dy="10" stdDeviation="9" flood-color="#1e1b4b" flood-opacity=".45"/>
    </filter>
    <!-- Subtle grain on the tile -->
    <filter id="grain">
      <feTurbulence type="fractalNoise" baseFrequency=".9" numOctaves="2" stitchTiles="stitch"/>
      <feColorMatrix values="0 0 0 0 1  0 0 0 0 1  0 0 0 0 1  0 0 0 .07 0"/>
    </filter>
  </defs>

  <g id="tile-layer" filter="url(#tileShadow)">
    <rect x="40" y="40" width="432" height="432" rx="108" fill="url(#tile)"/>
  </g>
  <g clip-path="url(#tileClip)">
    <rect id="grain-layer" x="40" y="40" width="432" height="432" filter="url(#grain)"/>
    <ellipse id="glow-layer" cx="256" cy="230" rx="230" ry="200" fill="url(#glow)"/>
    <path id="sheen-layer" d="M40 40h432v200c-80 30-160 40-216 40S120 270 40 240z" fill="url(#sheen)"/>
  </g>
  <rect id="rim-layer" x="42" y="42" width="428" height="428" rx="106" fill="none" stroke="url(#rim)" stroke-width="4"/>

  <!-- «ت» = ✓ : the check is the letter's body, two diamond dots above -->
  <g id="glyph-layer" filter="url(#bevel)">
    <!-- extruded depth -->
    <path d="M128 286L222 380L390 196" fill="none" stroke="#3b1d8f" stroke-opacity=".55" stroke-width="58" stroke-linecap="round" stroke-linejoin="round" transform="translate(0 12)"/>
    <path d="M128 286L222 380L390 196" fill="none" stroke="url(#glyph)" stroke-width="58" stroke-linecap="round" stroke-linejoin="round"/>
    <rect x="166" y="120" width="62" height="62" rx="12" fill="url(#glyph)" transform="rotate(45 197 151)"/>
    <rect x="262" y="120" width="62" height="62" rx="12" fill="url(#glyph)" transform="rotate(45 293 151)"/>
  </g>
  <!-- tiny sparkle on the leading dot -->
  <path id="sparkle-layer" d="M310 118l4 10 10 4-10 4-4 10-4-10-10-4 10-4z" fill="#fff" opacity=".9"/>
</svg>
